<mxfile host="app.diagrams.net" modified="2024-03-21T15:46:15.663Z" agent="Mozilla/5.0 (Windows NT 10.0; Win64; x64) AppleWebKit/537.36 (KHTML, like Gecko) Chrome/122.0.0.0 Safari/537.36 Edg/122.0.0.0" etag="tJ32HY8LPUJeixPc3_HX" version="24.0.7" type="github">
  <diagram name="Page-1" id="-Hs1bjtbzF-FlSKMsFzw">
    <mxGraphModel dx="1196" dy="535" grid="1" gridSize="10" guides="1" tooltips="1" connect="1" arrows="1" fold="1" page="1" pageScale="1" pageWidth="850" pageHeight="1100" math="0" shadow="0">
      <root>
        <mxCell id="0" />
        <mxCell id="1" parent="0" />
        <mxCell id="f3iYBHAqtihuNaz0V7mo-2" value="farmer" style="whiteSpace=wrap;html=1;align=center;" parent="1" vertex="1">
          <mxGeometry x="80" y="150" width="100" height="40" as="geometry" />
        </mxCell>
        <mxCell id="f3iYBHAqtihuNaz0V7mo-3" value="rice_leaf" style="whiteSpace=wrap;html=1;align=center;" parent="1" vertex="1">
          <mxGeometry x="280" y="280" width="100" height="40" as="geometry" />
        </mxCell>
        <mxCell id="f3iYBHAqtihuNaz0V7mo-4" value="API" style="whiteSpace=wrap;html=1;align=center;" parent="1" vertex="1">
          <mxGeometry x="620" y="280" width="100" height="40" as="geometry" />
        </mxCell>
        <mxCell id="f3iYBHAqtihuNaz0V7mo-5" value="rice_disease" style="whiteSpace=wrap;html=1;align=center;" parent="1" vertex="1">
          <mxGeometry x="280" y="570" width="100" height="40" as="geometry" />
        </mxCell>
        <mxCell id="f3iYBHAqtihuNaz0V7mo-6" value="is_affected_by" style="shape=rhombus;perimeter=rhombusPerimeter;whiteSpace=wrap;html=1;align=center;" parent="1" vertex="1">
          <mxGeometry x="270" y="400" width="120" height="60" as="geometry" />
        </mxCell>
        <mxCell id="f3iYBHAqtihuNaz0V7mo-7" value="collects" style="shape=rhombus;perimeter=rhombusPerimeter;whiteSpace=wrap;html=1;align=center;" parent="1" vertex="1">
          <mxGeometry x="270" y="140" width="120" height="60" as="geometry" />
        </mxCell>
        <mxCell id="f3iYBHAqtihuNaz0V7mo-8" value="requests" style="shape=rhombus;perimeter=rhombusPerimeter;whiteSpace=wrap;html=1;align=center;" parent="1" vertex="1">
          <mxGeometry x="440" y="270" width="120" height="60" as="geometry" />
        </mxCell>
        <mxCell id="f3iYBHAqtihuNaz0V7mo-9" value="detects" style="shape=rhombus;perimeter=rhombusPerimeter;whiteSpace=wrap;html=1;align=center;" parent="1" vertex="1">
          <mxGeometry x="610" y="560" width="120" height="60" as="geometry" />
        </mxCell>
        <mxCell id="f3iYBHAqtihuNaz0V7mo-10" value="" style="endArrow=none;html=1;rounded=0;entryX=0.5;entryY=1;entryDx=0;entryDy=0;exitX=0.5;exitY=0;exitDx=0;exitDy=0;" parent="1" source="f3iYBHAqtihuNaz0V7mo-3" target="f3iYBHAqtihuNaz0V7mo-7" edge="1">
          <mxGeometry relative="1" as="geometry">
            <mxPoint x="210" y="240" as="sourcePoint" />
            <mxPoint x="370" y="240" as="targetPoint" />
          </mxGeometry>
        </mxCell>
        <mxCell id="8oegXgQ-14NotW5eiYo2-18" value="m" style="edgeLabel;html=1;align=center;verticalAlign=middle;resizable=0;points=[];" vertex="1" connectable="0" parent="f3iYBHAqtihuNaz0V7mo-10">
          <mxGeometry x="-0.61" y="-7" relative="1" as="geometry">
            <mxPoint as="offset" />
          </mxGeometry>
        </mxCell>
        <mxCell id="f3iYBHAqtihuNaz0V7mo-11" value="" style="endArrow=none;html=1;rounded=0;exitX=1;exitY=0.5;exitDx=0;exitDy=0;entryX=0;entryY=0.5;entryDx=0;entryDy=0;" parent="1" source="f3iYBHAqtihuNaz0V7mo-3" target="f3iYBHAqtihuNaz0V7mo-8" edge="1">
          <mxGeometry relative="1" as="geometry">
            <mxPoint x="350" y="250" as="sourcePoint" />
            <mxPoint x="510" y="250" as="targetPoint" />
          </mxGeometry>
        </mxCell>
        <mxCell id="f3iYBHAqtihuNaz0V7mo-12" value="" style="endArrow=none;html=1;rounded=0;exitX=1;exitY=0.5;exitDx=0;exitDy=0;entryX=0;entryY=0.5;entryDx=0;entryDy=0;" parent="1" source="f3iYBHAqtihuNaz0V7mo-8" target="f3iYBHAqtihuNaz0V7mo-4" edge="1">
          <mxGeometry relative="1" as="geometry">
            <mxPoint x="470" y="250" as="sourcePoint" />
            <mxPoint x="630" y="250" as="targetPoint" />
          </mxGeometry>
        </mxCell>
        <mxCell id="f3iYBHAqtihuNaz0V7mo-13" value="" style="endArrow=none;html=1;rounded=0;exitX=1;exitY=0.5;exitDx=0;exitDy=0;entryX=0;entryY=0.5;entryDx=0;entryDy=0;" parent="1" source="f3iYBHAqtihuNaz0V7mo-2" target="f3iYBHAqtihuNaz0V7mo-7" edge="1">
          <mxGeometry relative="1" as="geometry">
            <mxPoint x="200" y="100" as="sourcePoint" />
            <mxPoint x="360" y="100" as="targetPoint" />
          </mxGeometry>
        </mxCell>
        <mxCell id="8oegXgQ-14NotW5eiYo2-19" value="1" style="edgeLabel;html=1;align=center;verticalAlign=middle;resizable=0;points=[];" vertex="1" connectable="0" parent="f3iYBHAqtihuNaz0V7mo-13">
          <mxGeometry x="-0.3422" y="6" relative="1" as="geometry">
            <mxPoint as="offset" />
          </mxGeometry>
        </mxCell>
        <mxCell id="f3iYBHAqtihuNaz0V7mo-14" value="" style="endArrow=none;html=1;rounded=0;entryX=0.5;entryY=1;entryDx=0;entryDy=0;exitX=0.5;exitY=0;exitDx=0;exitDy=0;" parent="1" source="f3iYBHAqtihuNaz0V7mo-6" target="f3iYBHAqtihuNaz0V7mo-3" edge="1">
          <mxGeometry relative="1" as="geometry">
            <mxPoint x="240" y="370" as="sourcePoint" />
            <mxPoint x="400" y="370" as="targetPoint" />
          </mxGeometry>
        </mxCell>
        <mxCell id="f3iYBHAqtihuNaz0V7mo-15" value="" style="endArrow=none;html=1;rounded=0;entryX=0.5;entryY=1;entryDx=0;entryDy=0;exitX=0.5;exitY=0;exitDx=0;exitDy=0;" parent="1" source="f3iYBHAqtihuNaz0V7mo-5" target="f3iYBHAqtihuNaz0V7mo-6" edge="1">
          <mxGeometry relative="1" as="geometry">
            <mxPoint x="230" y="500" as="sourcePoint" />
            <mxPoint x="390" y="500" as="targetPoint" />
          </mxGeometry>
        </mxCell>
        <mxCell id="8oegXgQ-14NotW5eiYo2-23" value="m" style="edgeLabel;html=1;align=center;verticalAlign=middle;resizable=0;points=[];" vertex="1" connectable="0" parent="f3iYBHAqtihuNaz0V7mo-15">
          <mxGeometry x="-0.4618" y="-9" relative="1" as="geometry">
            <mxPoint as="offset" />
          </mxGeometry>
        </mxCell>
        <mxCell id="f3iYBHAqtihuNaz0V7mo-16" value="" style="endArrow=none;html=1;rounded=0;exitX=1;exitY=0.5;exitDx=0;exitDy=0;entryX=0;entryY=0.5;entryDx=0;entryDy=0;" parent="1" source="f3iYBHAqtihuNaz0V7mo-5" target="f3iYBHAqtihuNaz0V7mo-9" edge="1">
          <mxGeometry relative="1" as="geometry">
            <mxPoint x="410" y="570" as="sourcePoint" />
            <mxPoint x="570" y="570" as="targetPoint" />
          </mxGeometry>
        </mxCell>
        <mxCell id="f3iYBHAqtihuNaz0V7mo-17" value="" style="endArrow=none;html=1;rounded=0;entryX=0.5;entryY=1;entryDx=0;entryDy=0;exitX=0.5;exitY=0;exitDx=0;exitDy=0;" parent="1" source="f3iYBHAqtihuNaz0V7mo-9" target="f3iYBHAqtihuNaz0V7mo-4" edge="1">
          <mxGeometry relative="1" as="geometry">
            <mxPoint x="560" y="429.5" as="sourcePoint" />
            <mxPoint x="720" y="429.5" as="targetPoint" />
          </mxGeometry>
        </mxCell>
        <mxCell id="8oegXgQ-14NotW5eiYo2-24" value="1" style="edgeLabel;html=1;align=center;verticalAlign=middle;resizable=0;points=[];" vertex="1" connectable="0" parent="f3iYBHAqtihuNaz0V7mo-17">
          <mxGeometry x="0.0017" y="-6" relative="1" as="geometry">
            <mxPoint as="offset" />
          </mxGeometry>
        </mxCell>
        <mxCell id="8oegXgQ-14NotW5eiYo2-1" value="request_id" style="ellipse;whiteSpace=wrap;html=1;align=center;" vertex="1" parent="1">
          <mxGeometry x="610" y="170" width="100" height="40" as="geometry" />
        </mxCell>
        <mxCell id="8oegXgQ-14NotW5eiYo2-2" value="mana_stratergy" style="ellipse;whiteSpace=wrap;html=1;align=center;" vertex="1" parent="1">
          <mxGeometry x="100" y="560" width="100" height="40" as="geometry" />
        </mxCell>
        <mxCell id="8oegXgQ-14NotW5eiYo2-3" value="&lt;u&gt;name&lt;/u&gt;" style="ellipse;whiteSpace=wrap;html=1;align=center;" vertex="1" parent="1">
          <mxGeometry x="160" y="500" width="100" height="40" as="geometry" />
        </mxCell>
        <mxCell id="8oegXgQ-14NotW5eiYo2-4" value="symptom" style="ellipse;whiteSpace=wrap;html=1;align=center;" vertex="1" parent="1">
          <mxGeometry x="130" y="630" width="100" height="40" as="geometry" />
        </mxCell>
        <mxCell id="8oegXgQ-14NotW5eiYo2-5" value="details" style="ellipse;whiteSpace=wrap;html=1;align=center;" vertex="1" parent="1">
          <mxGeometry x="240" y="680" width="100" height="40" as="geometry" />
        </mxCell>
        <mxCell id="8oegXgQ-14NotW5eiYo2-6" value="percentage" style="ellipse;whiteSpace=wrap;html=1;align=center;" vertex="1" parent="1">
          <mxGeometry x="370" y="650" width="100" height="40" as="geometry" />
        </mxCell>
        <mxCell id="8oegXgQ-14NotW5eiYo2-12" value="" style="endArrow=none;html=1;rounded=0;exitX=1;exitY=0.5;exitDx=0;exitDy=0;entryX=0;entryY=0.25;entryDx=0;entryDy=0;" edge="1" parent="1" source="8oegXgQ-14NotW5eiYo2-2" target="f3iYBHAqtihuNaz0V7mo-5">
          <mxGeometry width="50" height="50" relative="1" as="geometry">
            <mxPoint x="200" y="620" as="sourcePoint" />
            <mxPoint x="250" y="570" as="targetPoint" />
          </mxGeometry>
        </mxCell>
        <mxCell id="8oegXgQ-14NotW5eiYo2-13" value="" style="endArrow=none;html=1;rounded=0;exitX=1;exitY=0;exitDx=0;exitDy=0;entryX=0;entryY=1;entryDx=0;entryDy=0;" edge="1" parent="1" source="8oegXgQ-14NotW5eiYo2-4" target="f3iYBHAqtihuNaz0V7mo-5">
          <mxGeometry width="50" height="50" relative="1" as="geometry">
            <mxPoint x="260" y="690" as="sourcePoint" />
            <mxPoint x="310" y="640" as="targetPoint" />
          </mxGeometry>
        </mxCell>
        <mxCell id="8oegXgQ-14NotW5eiYo2-14" value="" style="endArrow=none;html=1;rounded=0;exitX=0.5;exitY=0;exitDx=0;exitDy=0;entryX=0.5;entryY=1;entryDx=0;entryDy=0;" edge="1" parent="1" source="8oegXgQ-14NotW5eiYo2-5" target="f3iYBHAqtihuNaz0V7mo-5">
          <mxGeometry width="50" height="50" relative="1" as="geometry">
            <mxPoint x="280" y="670" as="sourcePoint" />
            <mxPoint x="330" y="620" as="targetPoint" />
          </mxGeometry>
        </mxCell>
        <mxCell id="8oegXgQ-14NotW5eiYo2-15" value="" style="endArrow=none;html=1;rounded=0;exitX=1;exitY=1;exitDx=0;exitDy=0;entryX=0.5;entryY=0;entryDx=0;entryDy=0;" edge="1" parent="1" source="f3iYBHAqtihuNaz0V7mo-5" target="8oegXgQ-14NotW5eiYo2-6">
          <mxGeometry width="50" height="50" relative="1" as="geometry">
            <mxPoint x="380" y="660" as="sourcePoint" />
            <mxPoint x="430" y="610" as="targetPoint" />
          </mxGeometry>
        </mxCell>
        <mxCell id="8oegXgQ-14NotW5eiYo2-16" value="" style="endArrow=none;html=1;rounded=0;exitX=1;exitY=1;exitDx=0;exitDy=0;entryX=0;entryY=0;entryDx=0;entryDy=0;" edge="1" parent="1" source="8oegXgQ-14NotW5eiYo2-3" target="f3iYBHAqtihuNaz0V7mo-5">
          <mxGeometry width="50" height="50" relative="1" as="geometry">
            <mxPoint x="260" y="560" as="sourcePoint" />
            <mxPoint x="310" y="510" as="targetPoint" />
          </mxGeometry>
        </mxCell>
        <mxCell id="8oegXgQ-14NotW5eiYo2-17" value="" style="endArrow=none;html=1;rounded=0;exitX=0.25;exitY=0;exitDx=0;exitDy=0;entryX=0.5;entryY=1;entryDx=0;entryDy=0;" edge="1" parent="1" source="f3iYBHAqtihuNaz0V7mo-4" target="8oegXgQ-14NotW5eiYo2-1">
          <mxGeometry width="50" height="50" relative="1" as="geometry">
            <mxPoint x="590" y="240" as="sourcePoint" />
            <mxPoint x="640" y="190" as="targetPoint" />
          </mxGeometry>
        </mxCell>
        <mxCell id="8oegXgQ-14NotW5eiYo2-22" value="n" style="text;html=1;align=center;verticalAlign=middle;resizable=0;points=[];autosize=1;strokeColor=none;fillColor=none;" vertex="1" parent="1">
          <mxGeometry x="325" y="338" width="30" height="30" as="geometry" />
        </mxCell>
        <mxCell id="8oegXgQ-14NotW5eiYo2-25" value="m" style="text;html=1;align=center;verticalAlign=middle;resizable=0;points=[];autosize=1;strokeColor=none;fillColor=none;" vertex="1" parent="1">
          <mxGeometry x="445" y="568" width="30" height="30" as="geometry" />
        </mxCell>
      </root>
    </mxGraphModel>
  </diagram>
</mxfile>
